<svg width="540" height="121" viewBox="0 0 540 121" fill="none" xmlns="http://www.w3.org/2000/svg">
<path fill-rule="evenodd" clip-rule="evenodd" d="M521.022 89.6402C517.415 89.6402 514.185 88.7798 511.332 87.0589C508.478 85.338 506.217 82.9987 504.548 80.0409C502.879 77.0831 502.045 73.7489 502.045 70.0382C502.045 66.3276 502.879 62.9934 504.548 60.0356C506.217 57.0778 508.451 54.7116 511.251 52.9369C514.104 51.1623 517.308 50.2749 520.861 50.2749C523.768 50.2749 526.352 50.8396 528.613 51.9689C530.928 53.0983 532.813 54.6847 534.266 56.7283C534.558 57.1232 534.827 57.5311 535.074 57.9522V51.0816H540V88.8336H535.074V81.9188C534.826 82.3555 534.557 82.7782 534.266 83.1869C532.813 85.2305 530.955 86.8169 528.694 87.9462C526.433 89.0756 523.876 89.6402 521.022 89.6402ZM531.601 80.9282C529.179 83.6709 525.895 85.0422 521.749 85.0422C518.896 85.0422 516.365 84.3969 514.158 83.1062C511.951 81.8156 510.201 80.0409 508.909 77.7822C507.671 75.4698 507.052 72.8616 507.052 69.9576C507.052 67.0536 507.671 64.4723 508.909 62.2136C510.201 59.9549 511.924 58.1803 514.077 56.8896C516.285 55.5989 518.815 54.9536 521.668 54.9536C524.414 54.9536 526.81 55.5989 528.856 56.8896C530.901 58.1265 532.49 59.8743 533.62 62.1329C534.751 64.3916 535.316 67.0267 535.316 70.0382C535.316 74.5018 534.078 78.1318 531.601 80.9282Z" fill="#EBE7DE"/>
<path d="M481.786 89.6402C479.74 89.6402 477.802 89.3713 475.971 88.8336C474.141 88.242 472.472 87.4354 470.965 86.4136C469.457 85.3918 468.138 84.2087 467.008 82.8642L470.157 79.6376C471.664 81.5198 473.414 82.918 475.406 83.8322C477.398 84.7465 479.578 85.2036 481.947 85.2036C484.585 85.2036 486.658 84.6927 488.165 83.6709C489.727 82.5954 490.507 81.1165 490.507 79.2342C490.507 77.5134 489.996 76.1689 488.973 75.2009C487.95 74.2329 486.631 73.4531 485.016 72.8616C483.401 72.27 481.678 71.7322 479.848 71.2482C478.071 70.7105 476.375 70.0651 474.76 69.3123C473.145 68.5594 471.826 67.5107 470.803 66.1663C469.78 64.768 469.269 62.9127 469.269 60.6003C469.269 58.5567 469.78 56.782 470.803 55.2763C471.88 53.7167 473.36 52.5067 475.245 51.6463C477.183 50.732 479.444 50.2749 482.028 50.2749C484.881 50.2749 487.439 50.7858 489.7 51.8076C491.961 52.8294 493.791 54.3083 495.191 56.2443L492.042 59.3903C490.911 57.9383 489.458 56.8089 487.681 56.0023C485.958 55.1418 483.993 54.7116 481.786 54.7116C479.255 54.7116 477.317 55.2494 475.971 56.3249C474.625 57.3467 473.952 58.6643 473.952 60.2776C473.952 61.8909 474.464 63.1547 475.487 64.0689C476.51 64.9294 477.829 65.6285 479.444 66.1663C481.059 66.704 482.755 67.2418 484.532 67.7796C486.362 68.2636 488.085 68.9089 489.7 69.7156C491.315 70.5223 492.634 71.6516 493.657 73.1036C494.68 74.5018 495.191 76.384 495.191 78.7503C495.191 82.0845 493.98 84.7465 491.557 86.7362C489.135 88.6722 485.877 89.6402 481.786 89.6402Z" fill="#EBE7DE"/>
<path d="M441.542 89.6402C437.881 89.6402 434.57 88.7798 431.609 87.0589C428.648 85.2842 426.306 82.8911 424.584 79.8796C422.861 76.868 421.999 73.5338 421.999 69.8769C421.999 66.1663 422.861 62.8589 424.584 59.9549C426.306 56.9972 428.648 54.6578 431.609 52.9369C434.57 51.1623 437.881 50.2749 441.542 50.2749C445.203 50.2749 448.487 51.1623 451.395 52.9369C454.356 54.6578 456.698 56.9972 458.42 59.9549C460.197 62.8589 461.085 66.1663 461.085 69.8769C461.085 73.5876 460.197 76.9487 458.42 79.9603C456.698 82.918 454.356 85.2842 451.395 87.0589C448.487 88.7798 445.203 89.6402 441.542 89.6402ZM441.542 84.9616C444.288 84.9616 446.765 84.3162 448.972 83.0256C451.179 81.6811 452.902 79.8796 454.14 77.6209C455.379 75.3085 455.998 72.7003 455.998 69.7963C455.998 66.946 455.352 64.4185 454.06 62.2136C452.821 60.0087 451.098 58.2609 448.891 56.9703C446.738 55.6258 444.288 54.9536 441.542 54.9536C438.797 54.9536 436.32 55.6258 434.113 56.9703C431.906 58.2609 430.156 60.0087 428.864 62.2136C427.625 64.4185 427.006 66.9729 427.006 69.8769C427.006 72.7271 427.625 75.3085 428.864 77.6209C430.156 79.8796 431.906 81.6811 434.113 83.0256C436.32 84.3162 438.797 84.9616 441.542 84.9616Z" fill="#EBE7DE"/>
<path fill-rule="evenodd" clip-rule="evenodd" d="M380.287 33.5726H382.225H396.761C400.368 33.5726 403.437 34.2179 405.967 35.5086C408.552 36.7993 410.517 38.6008 411.863 40.9133C413.262 43.1719 413.962 45.7801 413.962 48.7379C413.962 51.7495 413.262 54.3846 411.863 56.6432C410.517 58.9019 408.552 60.6766 405.967 61.9672C403.547 63.1506 400.633 63.7679 397.226 63.8191L417.919 88.8292H411.297L391.006 63.8226H382.225V88.8292H377.057V33.5726H380.287ZM405.725 56.5626C403.679 58.4986 400.718 59.4666 396.842 59.4666H382.225V38.0899H396.923C400.745 38.0899 403.679 39.0848 405.725 41.0746C407.771 43.0106 408.794 45.565 408.794 48.7379C408.794 52.0184 407.771 54.6266 405.725 56.5626Z" fill="#EBE7DE"/>
<path fill-rule="evenodd" clip-rule="evenodd" d="M327.258 89.6402C323.651 89.6402 320.421 88.7798 317.567 87.0589C314.714 85.338 312.453 82.9987 310.784 80.0409C309.115 77.0831 308.281 73.7489 308.281 70.0382C308.281 66.3276 309.115 62.9934 310.784 60.0356C312.453 57.0778 314.687 54.7116 317.487 52.9369C320.34 51.1623 323.543 50.2749 327.097 50.2749C330.004 50.2749 332.588 50.8396 334.849 51.9689C337.164 53.0983 339.048 54.6847 340.502 56.7283C340.793 57.1232 341.063 57.5311 341.31 57.9521V51.0816H346.236V88.8336H341.31V81.9188C341.062 82.3555 340.793 82.7782 340.502 83.1869C339.048 85.2305 337.191 86.8169 334.93 87.9462C332.669 89.0756 330.112 89.6402 327.258 89.6402ZM337.837 80.9282C335.414 83.6709 332.13 85.0422 327.985 85.0422C325.132 85.0422 322.601 84.3969 320.394 83.1062C318.187 81.8156 316.437 80.0409 315.145 77.7822C313.907 75.4698 313.287 72.8616 313.287 69.9576C313.287 67.0536 313.907 64.4723 315.145 62.2136C316.437 59.9549 318.16 58.1803 320.313 56.8896C322.52 55.5989 325.051 54.9536 327.904 54.9536C330.65 54.9536 333.046 55.5989 335.091 56.8896C337.137 58.1265 338.725 59.8743 339.856 62.1329C340.987 64.3916 341.552 67.0267 341.552 70.0382C341.552 74.5018 340.314 78.1318 337.837 80.9282Z" fill="#EBE7DE"/>
<path d="M294.39 89.6455C292.183 89.6455 290.218 89.1884 288.495 88.2741C286.772 87.3599 285.399 86.0424 284.376 84.3215C283.407 82.5468 282.923 80.3957 282.923 77.8682V55.6042H273.313V51.0868H282.923V35.1955H287.849V51.0868H302.627V55.6042H287.849V77.6262C287.849 80.0462 288.441 81.9015 289.625 83.1922C290.81 84.4828 292.452 85.1282 294.551 85.1282C295.79 85.1282 296.92 84.913 297.943 84.4828C298.966 83.9988 299.935 83.2997 300.85 82.3855L303.838 85.4508C302.654 86.849 301.281 87.8977 299.72 88.5968C298.212 89.2959 296.436 89.6455 294.39 89.6455Z" fill="#EBE7DE"/>
<path d="M234.262 88.8336V67.0536C234.262 63.7194 234.935 60.8154 236.281 58.3416C237.627 55.814 239.512 53.8512 241.934 52.4529C244.357 51.0009 247.183 50.2749 250.414 50.2749C253.644 50.2749 256.47 51.0009 258.893 52.4529C261.316 53.8512 263.2 55.814 264.546 58.3416C265.892 60.8154 266.565 63.7194 266.565 67.0536V88.8336H261.639V67.2956C261.639 63.6387 260.643 60.6809 258.651 58.4223C256.713 56.1098 253.967 54.9536 250.414 54.9536C246.914 54.9536 244.142 56.1098 242.096 58.4223C240.104 60.6809 239.108 63.6387 239.108 67.2956V88.8336H234.262Z" fill="#EBE7DE"/>
<path fill-rule="evenodd" clip-rule="evenodd" d="M204.388 89.6402C200.781 89.6402 197.551 88.7798 194.697 87.0589C191.844 85.338 189.583 82.9987 187.914 80.0409C186.245 77.0831 185.41 73.7489 185.41 70.0382C185.41 66.3276 186.245 62.9934 187.914 60.0356C189.583 57.0778 191.817 54.7116 194.616 52.9369C197.47 51.1623 200.673 50.2749 204.226 50.2749C207.134 50.2749 209.718 50.8396 211.979 51.9689C214.294 53.0983 216.178 54.6847 217.632 56.7283C217.923 57.1232 218.192 57.5311 218.439 57.9521V51.0816H223.365V88.8336H218.439V81.9188C218.192 82.3555 217.922 82.7782 217.632 83.1869C216.178 85.2305 214.321 86.8169 212.06 87.9462C209.798 89.0756 207.241 89.6402 204.388 89.6402ZM214.967 80.9282C212.544 83.6709 209.26 85.0422 205.115 85.0422C202.261 85.0422 199.731 84.3969 197.524 83.1062C195.316 81.8156 193.567 80.0409 192.274 77.7822C191.036 75.4698 190.417 72.8616 190.417 69.9576C190.417 67.0536 191.036 64.4723 192.274 62.2136C193.567 59.9549 195.289 58.1803 197.443 56.8896C199.65 55.5989 202.181 54.9536 205.034 54.9536C207.78 54.9536 210.175 55.5989 212.221 56.8896C214.267 58.1265 215.855 59.8743 216.986 62.1329C218.116 64.3916 218.682 67.0267 218.682 70.0382C218.682 74.5018 217.443 78.1318 214.967 80.9282Z" fill="#EBE7DE"/>
<path d="M160.623 89.6366C156.316 89.6366 152.602 88.8299 149.479 87.2166C146.356 85.5495 143.638 83.237 141.323 80.2793L144.876 76.8106C146.868 79.6071 149.156 81.6506 151.74 82.9413C154.324 84.2319 157.366 84.8773 160.866 84.8773C164.526 84.8773 167.488 84.0437 169.749 82.3766C172.01 80.6557 173.14 78.2895 173.14 75.2779C173.14 72.9655 172.629 71.0833 171.606 69.6313C170.583 68.1793 169.237 66.9962 167.568 66.0819C165.899 65.1139 164.069 64.2804 162.077 63.5813C160.085 62.8284 158.093 62.0755 156.101 61.3226C154.109 60.5159 152.279 59.548 150.61 58.4186C148.941 57.2355 147.595 55.7297 146.572 53.9013C145.549 52.0728 145.037 49.7335 145.037 46.8833C145.037 43.9793 145.737 41.4786 147.137 39.3813C148.537 37.284 150.475 35.6706 152.952 34.5413C155.428 33.3582 158.254 32.7666 161.431 32.7666C164.984 32.7666 168.16 33.4657 170.96 34.864C173.813 36.2084 176.182 38.1175 178.067 40.5913L174.513 44.06C172.79 41.9089 170.852 40.2955 168.699 39.22C166.599 38.0906 164.15 37.526 161.35 37.526C158.012 37.526 155.32 38.3326 153.275 39.946C151.229 41.5055 150.206 43.7104 150.206 46.5606C150.206 48.7117 150.717 50.4864 151.74 51.8846C152.763 53.2291 154.109 54.3584 155.778 55.2726C157.447 56.1331 159.277 56.9128 161.269 57.612C163.261 58.3111 165.253 59.064 167.245 59.8706C169.237 60.6773 171.068 61.6991 172.737 62.936C174.406 64.1191 175.752 65.6786 176.774 67.6146C177.797 69.4968 178.309 71.8899 178.309 74.7939C178.309 79.5264 176.721 83.1833 173.544 85.7646C170.368 88.3459 166.061 89.6366 160.623 89.6366Z" fill="#EBE7DE"/>
<path d="M105.118 28.8798C105.095 32.3229 104.555 35.7425 103.5 38.8811C102.023 38.3893 100.499 37.9911 98.9279 37.71C100.733 32.7445 100.898 26.8186 99.4438 21.6657C92.6672 19.7451 85.0231 20.682 78.9735 24.1719C79.7942 29.559 79.1376 35.4146 77.168 40.3567C74.0493 41.7387 71.1887 43.6359 68.6094 45.8141C79.2549 33.4706 75.0811 12.6481 60.5666 5.22319C55.5722 7.96361 51.4687 12.2499 49.0536 17.4262C47.7639 16.5362 46.4039 15.7633 44.997 15.0606C48.2329 8.38521 53.8135 3.02149 60.5666 0C68.7735 3.63047 75.2687 10.8211 77.8714 19.4406C85.539 15.4822 95.059 14.92 103.172 17.9415C104.438 21.408 105.118 25.1322 105.118 28.8798Z" fill="#EBE7DE"/>
<path fill-rule="evenodd" clip-rule="evenodd" d="M118.109 55.1597C107.651 39.4902 83.288 37.265 70.157 50.7095C70.1804 50.7797 70.157 50.6626 70.157 50.7095C56.2287 63.6386 58.0577 88.4195 73.7445 99.0298C71.8452 106.103 66.968 112.287 60.5666 115.777C46.0991 108.352 41.855 87.5294 52.5239 75.1858C49.9446 77.3876 47.0839 79.2379 43.9653 80.6667C41.9722 85.5854 41.3391 91.4644 42.1598 96.8281C36.1101 100.318 28.466 101.255 21.6895 99.3343C20.2357 94.1814 20.3998 88.2555 22.2053 83.29C20.6578 83.0089 19.1336 82.6107 17.6564 82.1189C15.3585 88.724 15.4992 96.4768 17.9612 103.058C26.0743 106.08 35.5943 105.541 43.2619 101.559C45.8881 110.132 52.3832 117.346 60.5666 121C68.7501 117.346 75.2687 110.179 77.8714 101.559C82.139 103.738 86.7583 104.885 91.6355 104.979C92.6672 103.527 93.5348 101.934 94.1914 100.248C71.0949 102.731 55.9942 72.8904 71.7749 55.8624C83.1942 41.6216 107.651 44.2449 115.904 60.5C112.411 66.8943 106.244 71.7662 99.1624 73.64C94.5197 66.5898 79.2314 55.4174 75.2452 68.4871C75.2921 68.5105 75.3156 68.5573 75.339 68.6042C75.3273 68.5925 75.3097 68.5807 75.2921 68.569C75.2745 68.5573 75.257 68.5456 75.2452 68.5339C74.0963 79.2848 89.3376 79.6595 96.9348 78.8866C101.413 86.5691 101.578 96.711 97.3569 104.581C99.3735 104.253 101.32 103.738 103.172 103.058C106.197 94.9543 105.658 85.4214 101.671 77.7857C110.277 75.139 117.499 68.6979 121.133 60.5C120.289 58.6262 119.281 56.8227 118.109 55.1597ZM79.7942 69.8924C79.724 73.7805 89.3501 74.3761 93.8397 74.5066C91.0024 71.5788 81.8342 62.5846 79.7942 69.8924Z" fill="#EBE7DE"/>
<path d="M70.157 50.7095C70.1804 50.7797 70.157 50.6626 70.157 50.7095Z" fill="#EBE7DE"/>
<path d="M55.8068 49.5852C57.1668 31.7842 38.7599 16.4191 21.6896 21.6657C14.8193 43.4485 40.2606 64.0368 60.1447 52.7472C56.2523 82.9621 11.5131 88.7006 0 60.5C3.02482 53.731 8.39446 48.1799 15.0772 44.9241C15.7807 46.3529 16.5779 47.7114 17.4455 49.0231C12.2634 51.4356 7.9724 55.5111 5.22895 60.5C13.4827 76.7551 37.9627 79.3785 49.3585 65.1377C50.7185 63.6152 51.8675 61.8819 52.8054 60.0784C29.6855 64.6224 9.1917 39.701 17.9613 17.9416C37.5406 10.1654 60.7778 25.8349 60.5433 47.0087C59.1833 48.0159 57.3778 48.9294 55.8068 49.5852Z" fill="#EBE7DE"/>
</svg>
