<svg width="2406" height="2406" viewBox="0 0 2406 2406" fill="none" xmlns="http://www.w3.org/2000/svg">
<path d="M2087.9 574.255C2087.44 642.719 2076.72 710.716 2055.76 773.125C2026.42 763.345 1996.15 755.427 1964.95 749.838C2000.81 651.102 2004.07 533.27 1975.19 430.808C1840.59 392.617 1688.76 411.247 1568.6 480.642C1584.9 587.761 1571.86 704.196 1532.74 802.467C1470.8 829.945 1413.98 867.67 1362.75 910.984C1574.19 665.54 1491.29 251.499 1203 103.86C1103.8 158.351 1022.29 243.581 974.321 346.509C948.706 328.811 921.693 313.442 893.749 299.47C958.02 166.734 1068.87 60.0802 1203 0C1366.01 72.1894 1495.02 215.171 1546.71 386.563C1699.01 307.853 1888.1 296.675 2049.24 356.755C2074.39 425.685 2087.9 499.737 2087.9 574.255Z" fill="#9E724F"/>
<path fill-rule="evenodd" clip-rule="evenodd" d="M2345.92 1096.81C2138.2 785.235 1654.3 740.99 1393.49 1008.32C1116.84 1265.41 1153.16 1758.16 1464.74 1969.14C1427.02 2109.79 1330.15 2232.75 1203 2302.14C915.638 2154.5 831.34 1740.46 1043.25 1495.02C992.019 1538.8 935.199 1575.59 873.256 1604C833.669 1701.81 821.094 1818.71 837.394 1925.36C717.234 1994.76 565.404 2013.39 430.805 1975.2C401.929 1872.73 405.19 1754.9 441.052 1656.17C410.313 1650.58 380.04 1642.66 350.698 1632.88C305.056 1764.22 307.85 1918.38 356.753 2049.25C517.898 2109.33 706.988 2098.62 859.284 2019.44C911.447 2189.9 1040.46 2333.35 1203 2406C1365.54 2333.35 1495.02 2190.83 1546.71 2019.44C1631.48 2062.75 1723.23 2085.58 1820.1 2087.44C1840.59 2058.56 1857.83 2026.89 1870.87 1993.36C1412.12 2042.73 1112.18 1449.38 1425.62 1110.79C1652.44 827.617 2138.2 879.78 2302.14 1203C2232.75 1330.15 2110.26 1427.02 1969.6 1464.28C1877.39 1324.09 1573.73 1101.94 1494.55 1361.82C1495.48 1362.28 1495.95 1363.22 1496.41 1364.15C1496.18 1363.91 1495.83 1363.68 1495.48 1363.45C1495.13 1363.22 1494.78 1362.98 1494.55 1362.75C1471.73 1576.52 1774.46 1583.98 1925.36 1568.61C2014.31 1721.37 2017.57 1923.03 1933.74 2079.52C1973.8 2073 2012.45 2062.75 2049.24 2049.25C2109.32 1888.1 2098.61 1698.55 2019.44 1546.72C2190.36 1494.09 2333.81 1366.01 2406 1203C2389.23 1165.74 2369.21 1129.88 2345.92 1096.81ZM1584.9 1389.76C1583.51 1467.07 1774.71 1478.92 1863.88 1481.51C1807.53 1423.3 1625.42 1244.45 1584.9 1389.76Z" fill="#9E724F"/>
<path d="M1108.46 985.968C1135.47 632.008 769.865 326.483 430.808 430.809C294.346 863.945 799.672 1273.33 1194.62 1048.84C1117.31 1649.65 228.677 1763.75 0 1203C60.0802 1068.4 166.734 958.024 299.47 893.286C313.442 921.696 329.277 948.709 346.509 974.791C243.581 1022.76 158.351 1103.8 103.86 1203C267.799 1526.22 754.03 1578.39 980.379 1295.22C1007.39 1264.95 1030.21 1230.48 1048.84 1194.62C589.624 1284.97 182.569 789.427 356.755 356.756C745.647 202.131 1207.19 513.71 1202.54 934.737C1175.52 954.764 1139.66 972.928 1108.46 985.968Z" fill="#9E724F"/>
</svg>
